<svg width="36" height="36" viewBox="0 0 36 36" fill="none" xmlns="http://www.w3.org/2000/svg">
<path fill-rule="evenodd" clip-rule="evenodd" d="M7.5 24.375C8.12132 24.375 8.625 24.8787 8.625 25.5V28.5C8.625 28.7071 8.79289 28.875 9 28.875H27C27.2071 28.875 27.375 28.7071 27.375 28.5V25.5C27.375 24.8787 27.8787 24.375 28.5 24.375C29.1213 24.375 29.625 24.8787 29.625 25.5V28.5C29.625 29.9497 28.4497 31.125 27 31.125H9C7.55025 31.125 6.375 29.9497 6.375 28.5V25.5C6.375 24.8787 6.87868 24.375 7.5 24.375Z" fill="black"/>
<path fill-rule="evenodd" clip-rule="evenodd" d="M16.1068 24.1909C15.3352 24.1909 14.6916 23.6012 14.6242 22.8326C14.3937 20.2035 14.3531 17.5615 14.5024 14.9271C14.132 14.9066 13.7616 14.8829 13.3915 14.8559L11.1572 14.6931C10.2957 14.6303 9.81414 13.6697 10.2792 12.9419C11.8723 10.4488 13.925 8.28137 16.3279 6.55525L17.2231 5.91223C17.6873 5.57874 18.3126 5.57874 18.7769 5.91223L19.672 6.55525C22.075 8.28136 24.1277 10.4488 25.7208 12.9419C26.1858 13.6697 25.7043 14.6303 24.8428 14.6931L22.6085 14.8559C22.2383 14.8829 21.868 14.9066 21.4975 14.9271C21.6469 17.5615 21.6062 20.2035 21.3758 22.8326C21.3084 23.6012 20.6648 24.1909 19.8932 24.1909H16.1068Z" fill="black"/>
</svg>
