<svg width="56" height="56" viewBox="0 0 56 56" fill="none" xmlns="http://www.w3.org/2000/svg">
<circle cx="28" cy="28" r="28" fill="#98D9C2"/>
<path fill-rule="evenodd" clip-rule="evenodd" d="M17.5 34.375C18.1213 34.375 18.625 34.8787 18.625 35.5V38.5C18.625 38.7071 18.7929 38.875 19 38.875H37C37.2071 38.875 37.375 38.7071 37.375 38.5V35.5C37.375 34.8787 37.8787 34.375 38.5 34.375C39.1213 34.375 39.625 34.8787 39.625 35.5V38.5C39.625 39.9497 38.4497 41.125 37 41.125H19C17.5503 41.125 16.375 39.9497 16.375 38.5V35.5C16.375 34.8787 16.8787 34.375 17.5 34.375Z" fill="black"/>
<path fill-rule="evenodd" clip-rule="evenodd" d="M26.1068 34.1909C25.3352 34.1909 24.6916 33.6012 24.6242 32.8326C24.3937 30.2035 24.3531 27.5615 24.5024 24.9271C24.132 24.9066 23.7616 24.8829 23.3915 24.8559L21.1572 24.6931C20.2957 24.6303 19.8141 23.6697 20.2792 22.9419C21.8723 20.4488 23.925 18.2814 26.3279 16.5552L27.2231 15.9122C27.6873 15.5787 28.3126 15.5787 28.7769 15.9122L29.672 16.5552C32.075 18.2814 34.1277 20.4488 35.7208 22.9419C36.1858 23.6697 35.7043 24.6303 34.8428 24.6931L32.6085 24.8559C32.2383 24.8829 31.868 24.9066 31.4975 24.9271C31.6469 27.5615 31.6062 30.2035 31.3758 32.8326C31.3084 33.6012 30.6648 34.1909 29.8932 34.1909H26.1068Z" fill="black"/>
</svg>
